# xmcd
#
# Track frame offsets:
#	150
#	9649
#	20692
#	33480
#	40083
#	52773
#	66059
#	78483
#	91614
#	94998
#	109918
#	125298
#	142028
#	156964
#	161451
#	177256
#	191059
#	200667
#	215820
#	230830
#	247893
#	260593
#	264835
#	277506
#	291368
#	303747
#	310987
#	325111
#	341451
#
# Disc length: 4710 seconds
#
# Revision: 1
# Processed by: cddbd v1.5.1PL2 Copyright (c) Steve Scherf et al.
# Submitted via: EasyCDDAExtractor 6.5.0.1
#
DISCID=9f12641d
DTITLE=Merle Haggard - Same Train A Different Time, A Tribute To Jimmie Rodger
DTITLE=s
DYEAR=1994
DGENRE=Country
TTITLE0=Jimmie The Kid
TTITLE1=My Rough And Rowdy Ways
TTITLE2=California Blues  (Blue Yodel No. 4)
TTITLE3=Narration #1
TTITLE4=Hobo's Meditation
TTITLE5=Waitin' For A Train
TTITLE6=Mother, The Queen Of My Heart
TTITLE7=My Carolina Sunshine Girl
TTITLE8=Narration #2
TTITLE9=Train Whistle Blues
TTITLE10=Why Should I Be Lonely
TTITLE11=Jimmie's Texas Blues
TTITLE12=Blue Yodel, #6
TTITLE13=Narration #3
TTITLE14=Mule Skinner Blues (Blue Yodel No. 8)
TTITLE15=Peach Picking Time In Georgia
TTITLE16=Down The Old Road To Home
TTITLE17=Travelin' Blues
TTITLE18=Miss The Mississippi And You
TTITLE19=Frankie And Johnny
TTITLE20=No Hard Times
TTITLE21=Narration #4
TTITLE22=Hobo Bill's Last Ride
TTITLE23=My Old Pal
TTITLE24=Nobody Knows But Me
TTITLE25=Narration #5
TTITLE26=Jimmie Rodger's Last Blue Yodel  (Women Make A Fool Out Of Me)
TTITLE27=Mississippi Delta Blues
TTITLE28=Gambling Polka Dot Blues
EXTD=
EXTT0=
EXTT1=
EXTT2=
EXTT3=
EXTT4=
EXTT5=
EXTT6=
EXTT7=
EXTT8=
EXTT9=
EXTT10=
EXTT11=
EXTT12=
EXTT13=
EXTT14=
EXTT15=
EXTT16=
EXTT17=
EXTT18=
EXTT19=
EXTT20=
EXTT21=
EXTT22=
EXTT23=
EXTT24=
EXTT25=
EXTT26=
EXTT27=
EXTT28=
PLAYORDER=
